<svg xmlns="http://www.w3.org/2000/svg" viewBox="0 0 256 257"><defs><linearGradient id="vite_linear" x1="0" x2="1" y1="0" y2="1"><stop stop-color="#41d1ff" offset="0"/><stop stop-color="#bd34fe" offset="1"/></linearGradient><linearGradient id="vite_linear2" x1="0" x2="1" y1="0" y2="1"><stop stop-color="#ffea83" offset="0"/><stop stop-color="#ffa800" offset="1"/></linearGradient></defs><path d="M255.153 37.938 134.897 252.976c-1.652 2.97-5.88 3.01-7.588.072L.875 37.943c-1.93-3.247.64-7.259 4.36-6.54l123.04 24.034a4.1 4.1 0 0 0 1.54 0l120-23.954c3.707-.74 6.31 3.23 4.41 6.48Z" fill="url(#vite_linear)"/><path d="m185.432 4.651-83.05 15.96a2.5 2.5 0 0 0-2.04 2.59l5.26 86.51a2.5 2.5 0 0 0 3.3 2.17l23.24-8.35c1.57-.56 3.26.66 2.87 2.3l-6.88 28.59c-.39 1.64 1.3 2.86 2.87 2.3l14.33-5.16a2.5 2.5 0 0 0 1.6-1.94l17.7-105.41a2.5 2.5 0 0 0-2.89-2.85l-53.35 9.37c-1.67.29-3-1.34-2.26-2.9l10.25-22.46a2.5 2.5 0 0 1 1.79-1.42l65.69-11.52c1.82-.32 3.4 1.28 3.04 3.09l-1.73 8.74a2.5 2.5 0 0 1-2.01 1.96Z" fill="url(#vite_linear2)"/></svg>